<svg width="23" height="16" viewBox="0 0 23 16" fill="none" xmlns="http://www.w3.org/2000/svg">
<path d="M21.1414 0H11.3169H1.4923C0.949707 0 0.509827 0.43988 0.509827 0.98247V15.0175C0.509827 15.5601 0.949707 16 1.4923 16H11.3169H21.1414C21.684 16 22.1239 15.5601 22.1239 15.0175V0.98247C22.1239 0.43988 21.684 0 21.1414 0Z" fill="#5286F9"/>
<path d="M12.0677 5.20417C12.2837 5.45155 12.4717 5.72384 12.6265 6.01647C12.94 6.60921 13.1185 7.28402 13.1185 7.99999C13.1185 8.71596 12.94 9.39068 12.6265 9.9835C12.4717 10.2761 12.2837 10.5483 12.0677 10.7957C11.8455 11.0503 11.5937 11.2781 11.3173 11.4741C12.0119 11.9665 12.8591 12.2573 13.7735 12.2573C16.121 12.2573 18.0308 10.3474 18.0308 7.99999C18.0308 5.65254 16.121 3.74265 13.7735 3.74265C12.8591 3.74265 12.0119 4.03334 11.3173 4.52586C11.5936 4.72182 11.8454 4.94966 12.0677 5.20417Z" fill="#FFB655"/>
<path d="M12.6268 6.01654C12.472 5.72382 12.2839 5.45162 12.068 5.20424C11.8456 4.94964 11.5939 4.72193 11.3176 4.52601C10.6231 4.03349 9.77576 3.7428 8.86143 3.7428C6.51393 3.7428 4.60413 5.65265 4.60413 8.0001C4.60413 10.3475 6.51398 12.2574 8.86143 12.2574C9.77576 12.2574 10.6231 11.9667 11.3176 11.4742C11.5939 11.2783 11.8457 11.0504 12.068 10.7959C12.2839 10.5485 12.472 10.2762 12.6268 9.9837C12.9403 9.39087 13.1188 8.71606 13.1188 8.00018C13.1188 7.28405 12.9403 6.60928 12.6268 6.01654Z" fill="#D8143A"/>
<path d="M8.86072 12.2574C6.51322 12.2574 4.60342 10.3476 4.60342 8.00013C4.60342 5.65268 6.51327 3.74283 8.86072 3.74283C9.77505 3.74283 10.6223 4.03352 11.3169 4.52604V0H1.4923C0.949707 0 0.509827 0.43988 0.509827 0.98247V15.0175C0.509827 15.5601 0.949707 16 1.4923 16H11.3169V11.4741C10.6223 11.9666 9.77505 12.2574 8.86072 12.2574Z" fill="#3D6DEB"/>
</svg>
