<svg width="23" height="21" viewBox="0 0 23 21" fill="none" xmlns="http://www.w3.org/2000/svg">
<path d="M9.23179 20.3518C8.58324 20.3518 7.96125 20.0942 7.50266 19.6356C7.04406 19.177 6.78643 18.555 6.78643 17.9064C6.78643 17.2579 7.04406 16.6359 7.50266 16.1773C7.96125 15.7187 8.58324 15.4611 9.23179 15.4611C9.88034 15.4611 10.5023 15.7187 10.9609 16.1773C11.4195 16.6359 11.6772 17.2579 11.6772 17.9064C11.6772 18.555 11.4195 19.177 10.9609 19.6356C10.5023 20.0942 9.88034 20.3518 9.23179 20.3518ZM17.7906 20.3518C17.142 20.3518 16.52 20.0942 16.0614 19.6356C15.6028 19.177 15.3452 18.555 15.3452 17.9064C15.3452 17.2579 15.6028 16.6359 16.0614 16.1773C16.52 15.7187 17.142 15.4611 17.7906 15.4611C18.4391 15.4611 19.0611 15.7187 19.5197 16.1773C19.9783 16.6359 20.2359 17.2579 20.2359 17.9064C20.2359 18.555 19.9783 19.177 19.5197 19.6356C19.0611 20.0942 18.4391 20.3518 17.7906 20.3518ZM1.84924 3.1401C1.54401 3.13025 1.25458 3.00208 1.04214 2.78269C0.829712 2.56329 0.710937 2.26988 0.710938 1.96449C0.710937 1.6591 0.829712 1.36569 1.04214 1.14629C1.25458 0.926896 1.54401 0.798724 1.84924 0.788879L3.25655 0.788879C4.35941 0.788879 5.3131 1.55428 5.55274 2.63024L7.08476 9.52861C7.32441 10.6046 8.2781 11.37 9.38096 11.37H18.5657L20.3289 4.31509H8.90289C8.60054 4.3013 8.31514 4.17148 8.10605 3.95263C7.89697 3.73379 7.78029 3.44277 7.78029 3.1401C7.78029 2.83743 7.89697 2.54641 8.10605 2.32756C8.31514 2.10872 8.60054 1.9789 8.90289 1.9651H20.3289C20.6863 1.96499 21.039 2.04638 21.3603 2.20308C21.6815 2.35977 21.9628 2.58764 22.1828 2.86938C22.4028 3.15111 22.5556 3.47928 22.6297 3.82895C22.7038 4.17862 22.6972 4.54058 22.6104 4.88731L20.8473 11.9397C20.7202 12.4486 20.4266 12.9004 20.0131 13.2232C19.5997 13.546 19.0903 13.7213 18.5657 13.7212H9.38096C8.31086 13.7213 7.27272 13.3565 6.43798 12.6869C5.60324 12.0174 5.02184 11.0831 4.78979 10.0385L3.25655 3.1401H1.84924Z" fill="#181725"/>
</svg>
