<svg width="24" height="20" viewBox="0 0 24 20" fill="none" xmlns="http://www.w3.org/2000/svg">
<path d="M3.985 8.84345L11.8091 16.6675L19.6332 8.84345C20.3249 8.1517 20.7136 7.21349 20.7136 6.23521C20.7136 5.25693 20.3249 4.31872 19.6332 3.62697C19.2907 3.28445 18.8841 3.01275 18.4365 2.82738C17.989 2.64201 17.5094 2.5466 17.025 2.5466C16.0467 2.5466 15.1085 2.93522 14.4167 3.62697L11.8091 6.23459L9.20148 3.6282C8.50797 2.94573 7.57288 2.56495 6.59989 2.5688C5.6269 2.57264 4.69485 2.96081 4.00676 3.64874C3.31867 4.33667 2.93029 5.26863 2.92621 6.24161C2.92214 7.2146 3.3027 8.14978 3.985 8.84345ZM10.9399 1.88733L11.8091 2.75653L12.6783 1.88733C13.2482 1.31241 13.9261 0.855715 14.6729 0.543469C15.4198 0.231224 16.221 0.0695751 17.0305 0.0678024C17.8401 0.0660298 18.642 0.224169 19.3902 0.53314C20.1384 0.842111 20.8183 1.29583 21.3907 1.86825C21.9631 2.44067 22.4168 3.12051 22.7258 3.86875C23.0348 4.61699 23.1929 5.41888 23.1911 6.2284C23.1894 7.03792 23.0277 7.83912 22.7155 8.586C22.4032 9.33288 21.9465 10.0107 21.3716 10.5806L12.6795 19.2739C12.5654 19.3882 12.4298 19.4789 12.2805 19.5408C12.1313 19.6027 11.9713 19.6345 11.8097 19.6345C11.6481 19.6345 11.4882 19.6027 11.3389 19.5408C11.1897 19.4789 11.0541 19.3882 10.9399 19.2739L2.24658 10.5819C1.66385 10.0138 1.19971 9.33566 0.88109 8.58681C0.562473 7.83797 0.395721 7.03331 0.390507 6.21951C0.385293 5.40572 0.54172 4.59899 0.850716 3.84612C1.15971 3.09325 1.61512 2.40923 2.19053 1.83374C2.76594 1.25825 3.4499 0.802741 4.20272 0.493639C4.95555 0.184538 5.76226 0.0279959 6.57605 0.0330949C7.38985 0.0381939 8.19453 0.204832 8.94342 0.523343C9.69232 0.841854 10.3705 1.3059 10.9387 1.88856L10.9399 1.88733Z" fill="#181725"/>
</svg>
