<svg width="17" height="21" viewBox="0 0 17 21" fill="none" xmlns="http://www.w3.org/2000/svg">
<path d="M4.91556 10.4218C5.05639 10.3693 5.20783 10.3421 5.36094 10.3416C5.51405 10.3411 5.66572 10.3674 5.80698 10.419C5.94823 10.4706 6.07622 10.5463 6.18336 10.6418C6.2905 10.7373 6.37463 10.8506 6.43076 10.9749C6.4869 11.0993 6.51391 11.2322 6.51019 11.3659C6.50648 11.4995 6.47211 11.6311 6.40913 11.7529C6.34614 11.8748 6.25582 11.9844 6.1435 12.0752C6.03117 12.166 5.89913 12.2363 5.75517 12.2818C4.98949 12.5452 4.33233 13.0037 3.8692 13.5976C3.40607 14.1915 3.15841 14.8933 3.15844 15.6118V17.3518C3.15844 17.617 3.27913 17.8714 3.49394 18.0589C3.70875 18.2465 4.0001 18.3518 4.30389 18.3518H13.4675C13.7712 18.3518 14.0626 18.2465 14.2774 18.0589C14.4922 17.8714 14.6129 17.617 14.6129 17.3518V15.7048C14.613 14.9633 14.355 14.2392 13.8731 13.6286C13.3911 13.018 12.708 12.5497 11.9142 12.2858C11.7694 12.2419 11.6361 12.1731 11.5223 12.0834C11.4085 11.9937 11.3164 11.885 11.2516 11.7637C11.1868 11.6424 11.1506 11.5109 11.1451 11.3771C11.1395 11.2434 11.1648 11.11 11.2194 10.9849C11.274 10.8598 11.3569 10.7456 11.463 10.649C11.5691 10.5524 11.6963 10.4753 11.8372 10.4224C11.978 10.3695 12.1296 10.3419 12.283 10.3411C12.4363 10.3403 12.5882 10.3664 12.7298 10.4178C13.9573 10.826 15.0137 11.5501 15.7591 12.4943C16.5045 13.4385 16.9037 14.5581 16.9038 15.7048V17.3518C16.9038 18.1475 16.5417 18.9105 15.8973 19.4731C15.2529 20.0357 14.3788 20.3518 13.4675 20.3518H4.30389C3.39252 20.3518 2.51847 20.0357 1.87403 19.4731C1.2296 18.9105 0.867554 18.1475 0.867554 17.3518L0.867554 15.6118C0.867711 14.492 1.25389 13.3981 1.97584 12.4724C2.6978 11.5468 3.72212 10.8323 4.91556 10.4218ZM8.88567 0.351807C10.1008 0.351807 11.2662 0.773234 12.1255 1.52338C12.9847 2.27352 13.4675 3.29094 13.4675 4.35181V6.35181C13.4675 7.41267 12.9847 8.43009 12.1255 9.18023C11.2662 9.93038 10.1008 10.3518 8.88567 10.3518C7.67051 10.3518 6.50511 9.93038 5.64586 9.18023C4.78661 8.43009 4.30389 7.41267 4.30389 6.35181V4.35181C4.30389 3.29094 4.78661 2.27352 5.64586 1.52338C6.50511 0.773234 7.67051 0.351807 8.88567 0.351807ZM8.88567 2.35181C8.27809 2.35181 7.69539 2.56252 7.26577 2.93759C6.83614 3.31267 6.59478 3.82137 6.59478 4.35181V6.35181C6.59478 6.88224 6.83614 7.39095 7.26577 7.76602C7.69539 8.14109 8.27809 8.35181 8.88567 8.35181C9.49325 8.35181 10.076 8.14109 10.5056 7.76602C10.9352 7.39095 11.1766 6.88224 11.1766 6.35181V4.35181C11.1766 3.82137 10.9352 3.31267 10.5056 2.93759C10.076 2.56252 9.49325 2.35181 8.88567 2.35181Z" fill="#181725"/>
</svg>
