<svg width="29" height="19" viewBox="0 0 29 19" fill="none" xmlns="http://www.w3.org/2000/svg">
<path d="M18.5707 14.0713C19.3586 14.0713 20.1388 13.9161 20.8668 13.6146C21.5947 13.313 22.2562 12.8711 22.8133 12.3139C23.3705 11.7568 23.8124 11.0953 24.114 10.3674C24.4155 9.63943 24.5707 8.85921 24.5707 8.07128C24.5707 7.28335 24.4155 6.50313 24.114 5.77518C23.8124 5.04723 23.3705 4.38579 22.8133 3.82864C22.2562 3.27149 21.5947 2.82953 20.8668 2.528C20.1388 2.22648 19.3586 2.07128 18.5707 2.07128C16.9794 2.07128 15.4533 2.70342 14.3281 3.82864C13.2028 4.95386 12.5707 6.47998 12.5707 8.07128C12.5707 9.66258 13.2028 11.1887 14.3281 12.3139C15.4533 13.4391 16.9794 14.0713 18.5707 14.0713ZM24.8907 12.9773L28.4707 16.5573C28.5661 16.6496 28.6422 16.76 28.6946 16.882C28.7469 17.0041 28.7744 17.1353 28.7754 17.2681C28.7765 17.4009 28.7511 17.5325 28.7007 17.6554C28.6504 17.7783 28.576 17.8898 28.4821 17.9837C28.3881 18.0775 28.2764 18.1517 28.1535 18.2019C28.0305 18.2521 27.8989 18.2773 27.7661 18.276C27.6333 18.2748 27.5021 18.2471 27.3801 18.1946C27.2582 18.1421 27.1479 18.0659 27.0557 17.9703L23.4757 14.3903C21.8682 15.6381 19.8455 16.2264 17.8194 16.0355C15.7934 15.8445 13.9163 14.8886 12.5702 13.3623C11.2242 11.8361 10.5104 9.85423 10.5741 7.8202C10.6379 5.78618 11.4744 3.8529 12.9133 2.41393C14.3523 0.97495 16.2856 0.138448 18.3196 0.0747069C20.3536 0.0109658 22.3355 0.724778 23.8618 2.07083C25.388 3.41689 26.3439 5.29399 26.5349 7.32003C26.7259 9.34608 26.1375 11.3687 24.8897 12.9763L24.8907 12.9773Z" fill="#53B175"/>
<rect x="0.426147" y="0.0707779" width="8.85499" height="2.39923" rx="1.19961" fill="#53B175"/>
<rect x="0.426147" y="7.50897" width="6.46414" height="2.39923" rx="1.19961" fill="#53B175"/>
<rect x="0.426147" y="14.9476" width="8.85499" height="2.39923" rx="1.19961" fill="#53B175"/>
</svg>
