<svg width="20" height="21" viewBox="0 0 20 21" fill="none" xmlns="http://www.w3.org/2000/svg">
<path d="M3.00586 0.401611H17.0059C17.7882 0.401611 18.5386 0.712638 19.0918 1.26587C19.645 1.8191 19.9561 2.56942 19.9561 3.35181V5.35181C19.9561 6.21903 19.5821 6.99943 18.9854 7.53931L18.9688 7.55493V18.3167C18.9688 18.8338 18.7632 19.3299 18.3975 19.6956C18.0318 20.0612 17.5357 20.2668 17.0186 20.2668H9.37891V20.2659L9.36914 20.2678C9.24937 20.2904 9.12774 20.302 9.00586 20.302H7.00586C6.88397 20.302 6.76235 20.2904 6.64258 20.2678L6.63281 20.3167L6.64258 20.2668H3.0166C2.49952 20.2668 2.00333 20.0612 1.6377 19.6956C1.27213 19.3299 1.06641 18.8337 1.06641 18.3167V7.47583L1.01367 7.52759C0.717633 7.25696 0.479092 6.92886 0.314453 6.56274C0.14332 6.18206 0.0550816 5.76919 0.0556641 5.35181V3.35181C0.0556641 2.56942 0.36669 1.8191 0.919922 1.26587C1.47315 0.712637 2.22347 0.401612 3.00586 0.401611ZM12.9727 7.55103C12.4324 8.03559 11.7316 8.303 11.0059 8.302H9.00586C8.25068 8.302 7.56021 8.01803 7.03906 7.55103L7.00586 7.52075L6.97266 7.55103C6.4324 8.03559 5.73159 8.303 5.00586 8.302H2.96582V18.3665H5.05566V13.3518C5.05566 12.8346 5.26126 12.3386 5.62695 11.9729C5.99265 11.6072 6.48869 11.4016 7.00586 11.4016H9.00586C9.52303 11.4016 10.0191 11.6072 10.3848 11.9729C10.7505 12.3386 10.9561 12.8346 10.9561 13.3518V18.3665H17.0693V8.302H15.0059C14.2507 8.302 13.5602 8.01803 13.0391 7.55103L13.0059 7.52075L12.9727 7.55103ZM6.95605 18.3665H9.00586V18.3176H9.05566V13.302H6.95605V18.3665ZM14.0059 11.4016H15.0059C15.2578 11.4016 15.4996 11.5018 15.6777 11.6799C15.8559 11.8581 15.9561 12.0999 15.9561 12.3518V15.3518C15.9561 15.6038 15.8559 15.8455 15.6777 16.0237C15.4996 16.2018 15.2578 16.302 15.0059 16.302H14.0059C13.7539 16.302 13.5121 16.2018 13.334 16.0237C13.1558 15.8455 13.0557 15.6038 13.0557 15.3518V12.3518C13.0557 12.0999 13.1558 11.8581 13.334 11.6799C13.5121 11.5018 13.7539 11.4016 14.0059 11.4016ZM3.00586 2.302C2.72738 2.302 2.46058 2.41271 2.26367 2.60962C2.06676 2.80653 1.95605 3.07333 1.95605 3.35181V5.35181C1.95605 5.63028 2.06676 5.89708 2.26367 6.09399C2.46058 6.29091 2.72738 6.40161 3.00586 6.40161H5.00586C5.28434 6.40161 5.55113 6.29091 5.74805 6.09399C5.94496 5.89708 6.05566 5.63028 6.05566 5.35181V2.302H3.00586ZM7.95605 5.35181C7.95605 5.63028 8.06676 5.89708 8.26367 6.09399C8.46058 6.29091 8.72738 6.40161 9.00586 6.40161H11.0059C11.2843 6.40161 11.5511 6.29091 11.748 6.09399C11.945 5.89708 12.0557 5.63028 12.0557 5.35181V2.302H7.95605V5.35181ZM13.9561 5.35181C13.9561 5.63028 14.0668 5.89708 14.2637 6.09399C14.4606 6.29091 14.7274 6.40161 15.0059 6.40161H17.0059C17.2843 6.40161 17.5511 6.29091 17.748 6.09399C17.945 5.89708 18.0557 5.63028 18.0557 5.35181V3.35181C18.0557 3.07333 17.945 2.80653 17.748 2.60962C17.5511 2.41271 17.2843 2.302 17.0059 2.302H13.9561V5.35181Z" fill="#181725" stroke="white" stroke-width="0.1"/>
</svg>
